<svg t="1731183394702" class="icon" viewBox="0 0 1120 1024" version="1.1" xmlns="http://www.w3.org/2000/svg" p-id="42126" width="200" height="200"><path d="M483.052963 336.789388a511.680281 511.680281 0 0 0-57.364741-46.948802 68.022912 68.022912 0 0 0-7.266935-4.492287c-3.25911-1.607534-2.003912-1.51945-3.435278-1.51945l-17.969148 1.057009-9.55712 0.660631-9.006594 1.629555-18.057232 3.25911c-17.37458 4.514308-34.330761 10.239772-50.868542 17.198412l-11.07657 4.404202-10.790297 5.152918c-7.200872 3.633467-14.445785 6.892577-21.536552 10.614128-13.763134 8.147775-27.900625 15.678962-41.091212 24.949809a599.852421 599.852421 0 0 0-76.501003 59.456738l-15.767046 14.754079c-5.152917 4.954728-10.041582 10.305835-14.99631 15.458752-10.129666 10.129666-19.136261 21.316342-28.693381 32.040576A1005.017058 1005.017058 0 0 0 27.041805 563.737958c-6.231947 9.55712-10.526045 5.63738-10.526044-5.549295 0.176168-7.465124 1.453387-14.732058 3.831656-21.800804 3.347194-9.358931 7.81746-18.145316 13.366755-26.381175a615.817657 615.817657 0 0 1 74.298902-88.348308 635.746674 635.746674 0 0 1 89.008938-74.188796 550.701518 550.701518 0 0 1 125.123402-67.582492 309.659499 309.659499 0 0 1 77.447906-16.163424l9.55712-0.660631h5.461212c2.202101 0 5.064833-1.057009 7.156829 0.85882l10.614129 4.77856c3.060921 1.717639 5.549296 3.743572 8.323943 5.549295 5.63738 3.743572 10.900402 7.641292 15.965235 11.759222 5.064833 4.11793 10.305835 8.03767 15.1945 12.243684a1097.901695 1097.901695 0 0 1 69.982783 64.609655 1958.328775 1958.328775 0 0 1 98.279785 105.172363c24.377262 27.724457 48.754525 54.678178 71.788506 83.261454 5.064833 6.209926 9.55712 12.529957 14.908226 19.11424 18.277442 24.090989 21.910909 33.383857 20.8539 41.795884a30.234852 30.234852 0 0 1-0.88084 5.725464c-2.202101 4.866644-12.221663-3.149005-25.500334-20.259333-40.650792-50.207912-84.428568-102.397715-130.980992-152.957963-34.617034-37.215514-70.070867-73.990607-107.836905-107.858927l0.572546-0.088084z" fill="#1296db" p-id="42127"></path><path d="M471.69012 348.790841q-26.116923-24.729599-55.492955-45.429352-2.708585-1.915828-5.571317-3.435278l7.795439-14.577912-7.37704 14.776101 7.37704-14.75408-7.37704 14.75408q-2.37827-1.189135-4.13995-2.37827 3.853677 2.620501 8.367985 2.59848h-0.286273v-16.515761l0.968924 16.49374-17.969147 1.034988-9.380952 0.66063-1.145093-16.471718 2.928795 16.251508-8.984574 1.629555-18.079252 3.25911-2.928795-16.251508 4.161972 15.965235-4.183993-15.965235 4.183993 15.965235q-24.883746 6.496199-48.622399 16.449697l-11.406885 4.536329-6.0778-15.348647 7.112787 14.886206-10.790297 5.174938-7.134808-14.908226 7.487145 14.754079-7.487145-14.754079 7.487145 14.754079q-3.237089 1.607534-9.579141 4.668455-7.927565 3.809635-11.71518 5.813548l-7.707355-14.621954 8.412028 14.225575-8.412028-14.225575 8.412028 14.225575q-3.655488 2.158059-10.922423 6.320031-19.929018 11.472948-29.08976 17.925106l-0.22021 0.154147-0.22021 0.132126 0.22021-0.132126-0.22021 0.132126q-39.52772 25.918733-74.386985 57.849204l-15.656941 14.599932q-3.171026 3.060921-9.843394 10.129667l-4.536329 4.756539q-6.650346 6.628325-18.89403 20.831879-6.165884 7.15683-9.358931 10.724234l-12.331767-11.010507 13.03644 10.151687-13.03644-10.129666 13.03644 10.129666q-32.899395 42.280347-61.02023 87.841825l-0.110105 0.154147-0.110105 0.154147 0.110105-0.154147-0.110105 0.154147q-4.228035 6.540241-9.314889 9.733288-10.746255 6.73843-21.008047 0.198189Q0 575.9376 0 558.210684v-0.418399c0.22021-9.050637 1.805723-18.03521 4.668455-26.623406 3.941762-10.944444 9.050637-21.052089 15.370668-30.389q33.978425-49.106861 76.368876-90.858703 42.104179-42.1262 91.233061-76.016541 29.552201-21.316342 61.901071-38.779005 32.370891-17.484685 66.701651-30.631231l0.242231-0.110105 0.264252-0.088084-0.264252 0.088084 0.264252-0.088084q19.75285-6.826514 40.232393-11.120612 20.479543-4.272077 41.333443-5.879611l10.261793-0.726693h6.011737-0.550526l0.484463-0.044042q11.252738-1.255198 18.365525 5.196959l-11.120612 12.221663 6.782472-15.062374 11.27476 5.086854 0.66063 0.352337-0.66063-0.352337 0.66063 0.352337q2.686564 1.541471 6.804493 4.426224 1.695618 1.211156 2.466354 1.695618 8.67628 5.725464 17.308517 12.772188l5.43919 4.316118q6.782472 5.329085 10.129667 8.23586 35.519896 29.926558 70.907665 65.468474 47.939747 47.411243 99.0285 105.96512l14.247596 16.141403q39.197405 44.328301 57.959309 67.604513 2.642522 3.25911 7.641292 9.799351 4.734518 6.187905 7.244913 9.292868l0.176168 0.22021 0.154147 0.22021-0.154147-0.22021 0.154147 0.22021q14.159512 18.651799 19.378493 29.596243 6.121842 12.728146 4.690476 24.201095l-16.383635-2.047955 16.49374 0.880841-16.515761-0.880841 16.515761 0.880841q-0.242231 4.470266-1.321261 8.852447l-0.374357 1.431366-0.616589 1.343282 0.616589-1.321261-0.616589 1.321261q-3.082942 6.848535-9.865414 9.689246-5.659401 2.356248-11.913368 0.924883-5.85759-1.321261-12.1556-6.364073-8.47809-6.73843-19.686787-21.162195-71.193938-87.95193-130.078129-151.922975-62.165323-66.811756-106.713834-106.713834l-25.588419-22.945897 34.484908-5.725463 2.708585 16.29555-11.362843 11.979432z m46.816676-1.167114l-33.317795 5.549296-2.708584-16.295551 11.010507-12.287726q45.649562 40.915044 108.981998 108.959978 59.588864 64.71976 131.861832 154.014972 8.764364 11.29678 14.159512 15.568856 0.704672 0.572546 1.012967 0.748715-0.748714-0.44042-2.047955-0.726694-4.073888-0.924883-8.191817 0.792757-5.241001 2.202101-7.487145 7.222893l15.040353 6.782472-15.062374-6.782472 15.062374 6.782472-16.031298-3.985804q0.330315-1.29924 0.396378-2.642521l0.022021-0.572547-0.022021 0.594568 0.022021-0.594568 0.088084-0.572546q0.682651-5.593338-17.616811-29.772411l13.146545-9.975519-13.146545 9.975519 13.146545-9.975519-12.81623 10.415939q-2.81869-3.47932-7.839481-10.063603-4.668455-6.121842-7.112788-9.094679-18.277442-22.681644-56.990384-66.481441l-14.379722-16.295551q-50.295996-57.651015-97.553092-104.379606-34.374803-34.52895-69.0579-63.772856-2.796669-2.422312-8.984574-7.266935l-5.835568-4.624413q-7.399061-6.011737-14.599933-10.790297-1.255198-0.814778-3.435278-2.356248-2.730606-1.915828-3.941761-2.59848l8.103733-14.401743-8.103733 14.401743 8.103733-14.401743-6.782472 15.062373-12.992399-5.857589-1.937849-1.761681q2.950816 2.686564 6.782472 3.082942 0.726693 0.088084 1.29924 0.044042l-0.528504 0.066063q-2.136038 0.242231-3.633467 0.242231h-5.439191v-16.515761l1.145093 16.471719-9.424994 0.66063q-18.739883 1.453387-37.149451 5.285044-18.387547 3.853677-36.158505 10.019561l-5.417169-15.612899 5.417169 15.612899-5.417169-15.612899 5.923653 15.41471q-32.370891 12.397831-62.825953 28.847528-30.477083 16.471718-58.862171 36.929241-46.640508 32.15068-86.762795 72.361052-40.210372 39.571762-72.228926 85.815891c-4.756539 7.046724-8.632237 14.688016-11.384864 22.37335a58.069414 58.069414 0 0 0-2.972837 16.956181l-16.51576-0.396378h16.51576q0 1.915828 0.154147 2.488374-0.924883-3.347194-4.844623-5.857589-3.91974-2.510396-8.588195-2.15806-3.237089 0.22021-5.769506 1.827745-0.946904 0.594567-1.431366 1.10105 0.22021-0.22021 0.638609-0.88084l13.851218 9.028615-13.873239-9.028615 13.873239 9.028615-14.071428-8.6983q29.067738-47.080928 63.068184-90.726578l0.352337-0.44042-0.352337 0.44042 0.352337-0.44042 0.374357-0.44042q2.994858-3.369215 8.984574-10.305835 13.058461-15.128437 20.105185-22.175161l4.360161-4.55835q7.200872-7.619271 11.274759-11.539011l15.899172-14.842164q36.819135-33.714172 78.570978-61.086292l9.072658 13.807175-9.072658-13.807175 9.072658 13.807175-9.513078-13.498881q10.393919-7.310977 31.622176-19.53264 7.112788-4.073888 10.592108-6.143863l0.352336-0.198189-0.352336 0.22021 0.352336-0.22021 0.352336-0.176168q4.294098-2.290185 12.772188-6.364073 6.033758-2.906774 8.962553-4.382182l0.176168-0.088084-0.176168 0.088084 0.176168-0.088084 11.472949-5.483232 11.318801-4.470266q25.896712-10.900402 53.092664-17.969148l0.616589-0.176168-0.616589 0.176168 0.616589-0.176168 18.67382-3.347194 9.865414-1.783702 10.658171-0.748714 18.45361-1.07903H415.140156q5.681422-0.022021 10.261792 3.082942l-0.154147-0.110105 0.550526 0.308294 0.22021 0.088084-0.22021-0.088084 0.22021 0.088084 0.198189 0.110105q4.690476 2.510396 8.984574 5.549296 31.357924 22.087077 59.214506 48.446231l24.09099 22.835791z" fill="#1296db" p-id="42128"></path><path d="M706.764444 69.960761c-12.81623 3.523362-25.236082 8.147775-37.655934 12.618042-12.441873 4.492287-24.487368 9.579141-36.819135 15.194499-8.984574 3.655488-17.022244 9.579141-25.720544 13.388777a415.690681 415.690681 0 0 0-85.265367 55.647102l-8.720321 7.355019c-2.752627 2.488375-5.152917 5.373127-7.839481 8.147775l-15.1945 16.625865-16.07534 23.518443c-4.690476 8.235859-9.821372 16.185445-15.370668 23.892801-3.633467 4.77856-8.698301 1.717639-11.186675-5.549296a36.951261 36.951261 0 0 1 3.25911-29.442096 286.88977 286.88977 0 0 1 90.242116-86.036101c10.327856-6.980661 21.228257-13.388777 32.018554-20.083165 10.790297-6.694388 21.998993-12.904314 33.075563-19.11424 11.098591-6.209926 25.236082-11.561032 38.250501-17.396601 12.992398-5.835569 25.896712-9.55712 38.801027-14.732059l24.377262-7.553207c8.03767-2.664543 16.251508-4.866644 24.487368-6.870557l19.11424-4.690476c6.320031-1.541471 12.618041-2.576459 19.11424-3.831656 6.51822-1.233177 12.618041-2.664543 19.136262-3.721552l19.11424-2.862731c9.55712-1.827744 19.598702-2.972837 29.354011-4.316119 4.866644-0.572546 9.55712-1.431366 14.710038-1.893807l14.930247-0.968925c4.404203 0 8.698301-0.66063 13.080482-0.770735 16.537782 0.968925 21.800804 3.082942 24.377263 9.579141 0.726693 1.409345 1.321261 2.862732 1.73966 4.404202 0.85882 4.756539-6.033758 8.103733-17.308517 8.588196-34.793202 1.783702-69.300131 5.835569-103.542808 12.133579-12.904314 2.862732-25.984797 4.976749-38.823047 8.6983l-19.114241 4.976749-19.11424 5.945674-1.431366-0.880841z" fill="#1296db" p-id="42129"></path><path d="M711.146626 85.881955q-11.230717 3.104963-33.67013 11.230717l-2.774648 1.012966q-16.405655 5.945674-35.541917 14.688017l-0.352336 0.154147-0.330315 0.132126 0.330315-0.132126-0.330315 0.132126q-3.743572 1.51945-11.803264 6.121842-8.588195 4.932707-13.454839 7.068745l-6.650346-15.128436 7.266934 14.842163-7.266934-14.842163 7.266934 14.842163q-22.021014 10.790297-42.588641 24.201095-20.545606 13.410798-39.30751 29.221885l-8.676279 7.355019-10.680192-12.618041 11.032528 12.309747-11.010507-12.309747 11.010507 12.309747q-1.233177 1.101051-4.073888 4.183992l-2.906774 3.104963-11.891347-11.450927 12.199642 11.120612-15.1945 16.647887-12.199642-11.142634 13.653029 9.314889-16.07534 23.518443-13.653029-9.314889 14.33568 8.213839-14.313659-8.213839 14.313659 8.213839q-7.487145 13.080482-16.29555 25.324166l-0.132126 0.176168-0.132126 0.176168 0.132126-0.176168-0.132126 0.176168q-4.756539 6.253968-11.847306 8.147775-7.773418 2.047954-15.062373-1.805723-9.028616-4.77856-13.058462-16.51576l-0.066063-0.220211-0.066063-0.22021a53.577127 53.577127 0 0 1 4.690476-42.610662l0.286273-0.484462 0.308294-0.462441-0.308294 0.462441 0.308294-0.462441q9.248826-13.829197 19.97306-26.557343 10.702213-12.706125 22.747708-24.201095 12.045495-11.450927 25.258103-21.580593 13.212608-10.085624 27.482225-18.651799l8.522133 14.137491-9.248826-13.67505 9.248826 13.67505-9.248826-13.67505q7.81746-5.285043 23.848758-15.084395l8.720321-5.351106q10.349877-6.408115 31.335903-18.167337l2.37827-1.32126q8.434048-4.734518 27.59233-12.882294 8.081712-3.457299 11.957411-5.174938 8.279901-3.743572 24.201094-9.358931 10.261793-3.655488 15.238542-5.637379l0.616588-0.242232 24.993851-7.751396q10.504024-3.501341 25.456293-7.15683l19.11424-4.668455q5.21898-1.277219 15.282583-3.149005l4.668455-0.880841 6.826515-1.365302q8.301922-1.717639 12.750167-2.422312l19.312429-2.906774 2.422312 16.339593-3.060921-16.229488 3.082942 16.229488-3.082942-16.229488q7.751397-1.475408 23.276212-3.523362 4.624413-0.594567 6.914598-0.924883 2.091996-0.242231 5.835569-0.770735 6.143863-0.880841 9.601162-1.211156l0.22021-0.022021 15.678962-1.012967h0.528504-0.528504 0.528504q1.695618 0 5.681422-0.330315 4.536329-0.374357 7.068745-0.44042h0.660631l0.66063 0.044042-0.66063-0.044042 0.66063 0.044042q14.996311 0.880841 22.505476 3.809635 11.671137 4.602392 16.251509 16.141404l-15.348647 6.099821 14.688016-7.59725c1.233177 2.422312 2.246143 4.976749 2.950816 7.59725l0.22021 0.726693 0.132126 0.726694-0.132126-0.726694 0.132126 0.726694q1.541471 8.588195-3.523362 15.745025-3.457299 4.910686-9.513078 7.927565-7.861502 3.853677-19.818912 4.36016-50.956626 2.642522-101.252623 11.891348l-2.994858-16.251508 3.589426 16.141403-3.589426-16.141403 3.589426 16.141403q-4.33814 0.946904-12.882294 2.686564-16.890118 3.413257-24.905766 5.725463l-0.220211 0.088084-19.378492 5.020791-4.139951-15.987256 4.888666 15.789067-26.160965 8.103733-7.773418-4.668455 8.500111-14.159512 4.404203 15.921194z m-1.95987-33.714173l7.487145 4.492287-8.478091 14.159512-4.888665-15.767046 19.488598-6.033758 19.488597-5.064833 4.139951 15.965235-4.624413-15.85513q9.358931-2.708585 27.614351-6.386094 8.235859-1.673597 12.243684-2.576459l0.308294-0.066063-0.308294 0.066063 0.308294-0.066063 0.286273-0.044042q52.432034-9.667225 105.832994-12.397831 4.99877-0.22021 6.606304-0.990945-1.497429 0.704672-2.862732 2.642521-2.906774 4.139951-1.981891 9.160742l16.229487-2.928795-16.251508 2.928795 16.251508-2.928795-15.921193 4.404203a6.231947 6.231947 0 0 0-0.44042-1.211156l-0.396379-0.726693-0.308294-0.770736q0.704672 1.761681 2.356249 2.422312-2.59848-1.012967-12.331768-1.585513l0.946903-16.493739-0.946903 16.51576 0.946903-16.51576 0.374358 16.51576q-1.541471 0.044042-5.064833 0.330315-5.351106 0.44042-8.412028 0.44042v-16.51576 16.51576-16.51576l1.057009 16.493739-14.908227 0.946904L851.993032 18.277442l1.541471 16.427676q-2.642522 0.242231-7.927565 1.012967-4.183993 0.594567-6.0778 0.814777l-7.112788 0.968925q-14.577911 1.915828-21.404425 3.215068l-0.308295 0.044042 0.308295-0.044042-0.308295 0.044042-19.268387 2.884753q-3.743572 0.616588-11.318801 2.202101l-7.332998 1.453387-4.844623 0.902862q-9.160742 1.695618-13.432818 2.730605l-19.158282 4.690476q-13.631008 3.347194-23.496422 6.606305l-24.377263 7.575228-4.888665-15.789067 6.143863 15.348647q-5.593338 2.224122-16.471719 6.0778-14.643974 5.196959-21.712719 8.367985-4.183993 1.871786-12.551978 5.439191-17.506706 7.443103-24.377263 11.29678l-2.378269 1.321261q-20.347417 11.406885-30.080705 17.440643-2.972837 1.849765-8.918511 5.461211-15.348647 9.380952-22.549519 14.247596l-0.352336 0.242232 0.352336-0.220211-0.352336 0.220211-0.374357 0.22021q-12.706125 7.663313-24.487368 16.647886-11.781242 9.006595-22.505476 19.224345t-20.259333 21.580594q-9.55712 11.318801-17.792979 23.650569l-13.741113-9.204784 13.741113 9.204784-13.741113-9.204784 14.313659 8.23586a20.479543 20.479543 0 0 0-1.783702 16.29555l-15.767046 4.910686 15.63492-5.329085q0.088084 0.308294 0.198189 0.484462l-0.110105-0.154147q-0.924883-1.29924-2.840711-2.290186-4.139951-2.202101-8.874468-0.946903-3.875698 1.034988-5.967695 3.787614l13.146545 9.997541-13.146545-9.997541 13.146545 9.997541-13.410797-9.645204q7.81746-10.85636 14.467806-22.461435l0.330315-0.572546-0.330315 0.572546 0.330315-0.572546 17.088307-25.015872 16.141403-17.660853 0.154147-0.176168q0.770735-0.792757 2.356249-2.532417 3.897719-4.228035 6.342052-6.408115l0.176168-0.154147-0.176168 0.154147 0.176168-0.154147 8.89649-7.531187q20.303375-17.132349 42.544599-31.644197 22.241224-14.533869 46.112003-26.205007l0.308294-0.154147-0.308294 0.154147 0.308294-0.154147 0.308294-0.132126q3.25911-1.431366 10.349877-5.505253 9.99754-5.725464 15.833109-8.081713l6.165884 15.326626-6.165884-15.326626 6.165884 15.326626-6.848535-15.018331q20.369438-9.33691 38.052312-15.723004L666.245779 66.063042q23.628548-8.588195 36.114463-12.023474l6.826514-1.871786z" fill="#1296db" p-id="42130"></path><path d="M1007.703622 294.641167l-30.014642-52.872454c-3.743572-6.408115-7.751397-12.728146-11.27476-19.136261a1072.841781 1072.841781 0 0 1-35.013412-70.467245c-4.668455-10.592108-9.535099-21.294321-13.851218-32.194723a92.928679 92.928679 0 0 1-7.531186-21.844846 94.602276 94.602276 0 0 1-2.025934-22.989938c0-4.976749 3.633467-3.831656 6.980662 0 4.272077 5.020791 7.487145 10.658171 9.55712 16.912139a796.059656 796.059656 0 0 0 34.617034 81.081373c7.355019 16.427676 17.484685 32.304828 26.667448 48.270063l30.873461 52.586181 19.136262 32.216744c9.55712 16.251508 19.11424 32.78929 29.530179 48.754525 7.839481 12.419852 16.449697 24.090989 24.201095 36.510841 1.717639 2.862732 3.435278 5.461211 4.954728 8.323943 5.945674 10.614129 5.174938 15.480773 2.774648 19.11424a21.052089 21.052089 0 0 1-1.805723 2.686564c-2.202101 2.290185-6.804493-0.968925-12.618042-7.465124-15.502794-20.457522-29.354012-43.601608-43.975964-66.921861-10.724234-17.198412-21.228257-34.705118-31.754303-52.299908l0.572547-0.286274z" fill="#1296db" p-id="42131"></path><path d="M993.367942 302.788943l-30.036664-52.850434q-1.321261-2.268164-4.250055-7.134809-4.822602-7.993628-7.134809-12.17762-22.043035-41.179296-35.607979-71.744464l-2.620501-5.879611q-7.883523-17.770958-11.51699-26.975742l15.348646-6.055779-14.820142 7.266935 14.820142-7.266935-14.820142 7.266935q-2.994858-6.121842-5.21898-12.59602-2.202101-6.386094-3.633468-13.03644-1.431366-6.694388-2.025933-13.476861-0.594567-6.760451-0.352336-13.564945l16.51576 0.572547h-16.51576 16.51576-16.51576q0-7.244914 3.831656-12.463894 6.209926-8.390006 16.669908-7.266935 8.47809 0.924883 15.41471 8.852448c5.725464 6.760451 10.041582 14.357701 12.772188 22.549518l-15.63492 5.241002 15.502794-5.63738-15.524815 5.63738 15.524815-5.63738q14.754079 40.628771 33.912361 79.385755l0.132126 0.286274 0.110105 0.286273-0.110105-0.286273 0.110105 0.286273q5.174938 11.561032 18.938072 34.881286 4.690476 7.927565 6.980662 11.913369l30.829419 52.454055 19.070199 32.15068 3.567404 6.099821q16.669908 28.407108 25.588418 42.060137 3.765593 5.945674 11.51699 17.352559 8.67628 12.728146 12.860273 19.466576l1.695618 2.752627q2.554438 4.11793 3.831656 6.51822 11.781242 21.096131 1.981891 35.960316l-13.785154-9.072658 14.33568 8.191818-14.313659-8.191818 14.313659 8.191818q-1.431366 2.510396-3.237089 4.77856l-0.462442 0.594567-0.528504 0.550525 0.528504-0.550525-0.528504 0.550525q-6.386094 6.650346-15.63492 5.725464-5.064833-0.506483-9.953498-3.567404-5.086854-3.171026-11.230717-10.019562l-0.462442-0.506483-0.44042-0.550525 0.44042 0.550525-0.44042-0.550525q-13.388777-17.704895-37.655934-56.704111l-7.134808-11.406886q-12.265705-19.730829-31.930471-52.608202l-9.116699-15.282584 16.493739-8.235859 7.37704 14.754079-14.357701 8.147776z m37.303597-1.167114l-16.141403 8.059691-7.399061-14.754079 14.181533-8.478091q19.510618 32.591101 31.556113 51.969593l7.178851 11.51699q23.474401 37.721997 35.982337 54.237758l-13.168567 9.953498 13.168567-9.953498-13.168567 9.953498 12.287726-11.010507q2.994858 3.325173 4.095909 4.007825-1.607534-0.990946-4.183993-1.255198-6.760451-0.66063-11.51699 4.294098l11.93539 11.428906-11.93539-11.450927 11.93539 11.450927-12.926336-10.305835q0.22021-0.264252 0.396379-0.572546l0.264252-0.44042-0.264252 0.44042 0.264252-0.44042 0.286273-0.44042q-1.101051 1.651576-0.946904 3.523362-0.088084-1.277219-2.598479-5.791527-0.792757-1.453387-2.774648-4.668455l-1.651576-2.686564q-3.831656-6.165884-12.133579-18.343504-8.081712-11.869327-11.869326-17.881064-9.33691-14.313659-26.425217-43.403418l-3.47932-5.945674-19.158283-32.282806-30.961545-52.718308q-2.202101-3.831656-6.782473-11.583053-14.710037-24.927788-20.655711-38.184439l15.084395-6.73843-15.084395 6.73843 15.084395-6.73843-14.798122 7.310977q-19.97306-40.408561-35.343727-82.754971l-0.066063-0.198189 0.066063 0.198189-0.066063-0.198189-0.066063-0.198189a34.440866 34.440866 0 0 0-6.320031-11.274759l0.44042 0.330315q2.224122 1.541471 5.461212 1.915828 8.367985 0.880841 13.432818-5.945674 2.642522-3.523362 2.642522-7.17885v0.286273-0.286273 0.286273l-0.022021 0.286273q-0.176168 4.77856 0.242231 9.535099 0.44042 4.77856 1.409345 9.424994 1.012967 4.690476 2.576458 9.248826 1.541471 4.492287 3.655489 8.786385l0.286273 0.594567-0.286273-0.594567 0.286273 0.594567 0.242231 0.594567q3.391236 8.588195 11.010507 25.698524l2.576459 5.87961q13.080482 29.442096 34.352782 69.190026 2.003912 3.611446 6.51822 11.076571 3.082942 5.108875 4.668455 7.861502l30.036663 52.872454 8.588195 15.150458z" fill="#1296db" p-id="42132"></path><path d="M946.132867 461.560453c-19.884976 6.782472-38.999216 15.326626-57.342721 25.61044-6.892577 3.633467-12.992398 8.412027-19.136261 12.331768a354.472262 354.472262 0 0 0-64.147214 51.154815 209.728137 209.728137 0 0 0-22.945896 28.67136c-8.588195 12.904314-15.678962 26.689469-24.839704 39.30751-2.972837 3.91974-8.03767 0.748714-11.098591-5.637379a26.513301 26.513301 0 0 1 0.770735-24.575452 260.288385 260.288385 0 0 1 67.692597-75.620162c16.141403-12.1556 32.106638-25.808628 49.701429-36.70903a375.964772 375.964772 0 0 1 100.085508-43.403419 334.212929 334.212929 0 0 1 62.31947-10.239771 198.783693 198.783693 0 0 1 49.437177 1.255197c3.743572 0.44042 7.421082 1.233177 11.010507 2.37827 13.564945 4.316119 16.824055 8.808406 16.141403 15.41471a33.141626 33.141626 0 0 1-0.572547 4.470266c-1.717639 4.690476-7.729376 4.976749-15.85513 3.082942a207.680183 207.680183 0 0 0-79.165545-1.93785c-20.809858 3.082942-41.113233 8.147775-60.888104 15.304605l-1.167113-0.880841z" fill="#1296db" p-id="42133"></path><path d="M951.483973 477.195373q-28.407108 9.689246-54.612115 24.399284l-0.198189 0.088084-0.176168 0.110105 0.176168-0.110105-0.176168 0.110105q-3.69953 1.937849-11.208696 7.112788-4.404203 3.0389-6.716409 4.514307a339.784246 339.784246 0 0 0-61.350545 48.886652q-11.494969 12.045495-20.919964 26.182985-3.413257 5.130896-9.931477 16.031298-9.579141 15.943214-15.304605 23.826738-5.241001 6.936619-13.212608 8.25788-7.002682 1.145093-13.542924-2.422312-7.927565-4.316119-12.59602-14.093449-1.07903-2.202101-1.915828-4.668455-0.85882-2.444333-1.409345-4.99877-0.550525-2.532417-0.770735-5.130896-0.22021-2.59848-0.154147-5.196959 0.088084-2.59848 0.462441-5.152918 0.396378-2.59848 1.101051-5.086854 0.704672-2.510396 1.717639-4.910686 0.990946-2.422312 2.268164-4.668455 7.068745-11.957411 15.084395-22.901855 8.03767-10.988486 17.110328-21.118152 9.050637-10.129666 19.070198-19.312429t20.875921-17.352559q4.624413-3.457299 13.961323-10.790297 23.782695-18.585736 36.973282-26.755532 30.168789-18.67382 63.178289-31.644197 20.281354-7.905544 41.24536-13.653029 32.370891-8.500111 65.578579-10.768276l1.101051 16.471719-1.607534-16.427677c17.837021-1.761681 35.806169-1.321261 53.511064 1.343282l-2.466353 16.339592 1.937849-16.405655-1.937849 16.405655 1.937849-16.405655q7.200872 0.836799 14.11547 3.082942 29.904537 9.469036 27.526267 32.767269l-16.427676-1.673597 16.51576 0.968924-16.51576-0.968924 16.51576 0.968924q-0.22021 3.391236-0.88084 6.738431l-0.242231 1.255197-0.440421 1.233177 0.440421-1.233177-0.440421 1.233177q-7.355019 19.97306-35.167559 13.432819-17.704895-3.875698-36.114463-4.316119-18.365526-0.44042-36.510841 2.620501-29.926558 4.404203-58.047393 14.533869l-8.367985 3.0389-8.301923-6.209926 9.909457-13.212609 5.351106 15.63492z m-2.422312-34.088529l8.147776 6.099821-9.909457 13.212608-5.615358-15.546836q31.247819-11.252738 63.750835-16.031298 21.2723-3.589425 42.830872-3.082942 21.558573 0.528504 42.852894 5.196959 3.391236 0.792757 4.073887 0.704673-5.351106 0.814778-7.487144 6.606304l15.502793 5.725464-15.502793-5.725464 15.502793 5.725464-16.185445-3.215068q0.22021-1.123072 0.286273-2.268165v-0.352336 0.352336-0.352336l0.044042-0.352336q-0.242231 2.488375 1.871787 4.646434-0.748714-0.770735-6.650347-2.642522-3.853677-1.233177-7.861502-1.717639h-0.264252 0.264252-0.264252l-0.264252-0.066063a183.038668 183.038668 0 0 0-45.341268-1.123072h-0.242231l-0.264252 0.022021q-30.080705 2.069975-59.104402 9.689246-19.290408 5.285043-37.876144 12.551978-30.256873 11.869327-57.871225 28.957634-11.671137 7.222893-34.022466 24.707577-9.601162 7.509166-14.467806 11.164654-9.55712 7.200872-18.387547 15.282584-8.808406 8.103733-16.802034 17.022244-7.971607 8.89649-15.040352 18.563715-7.068745 9.645204-12.992399 19.686786-0.308294 0.528504-0.550525 1.101051-0.22021 0.528504-0.374357 1.101051-0.176168 0.594567-0.264252 1.167113-0.088084 0.616588-0.110105 1.211156l0.044042 1.189135q0.044042 0.594567 0.176168 1.189135 0.132126 0.572546 0.330315 1.145092 0.176168 0.572546 0.506483 1.211156 0.22021 0.506483 0.352336 0.660631-0.550525-0.682651-1.761681-1.343282-3.435278-1.871786-7.663313-1.167114-5.020791 0.814778-8.103733 4.910686 4.866644-6.694388 13.67505-21.404425 6.936619-11.561032 10.790297-17.330538 11.010507-16.559803 24.97183-31.181756a371.692695 371.692695 0 0 1 66.943882-53.400959q1.871786-1.189135 5.813548-3.919741 9.1167-6.253968 14.533869-9.1167l7.707355 14.599933-7.707355-14.599933 7.707355 14.599933-8.081712-14.401743q28.825507-16.163424 60.095347-26.843616l8.25788-2.81869z" fill="#1296db" p-id="42134"></path><path d="M952.07854 477.041226c-17.704895 7.37704-34.661076 16.163424-50.868542 26.381175-5.945674 3.743572-11.561032 7.839481-17.308517 11.869327a442.842592 442.842592 0 0 0-57.915267 46.640507c-7.883523 7.707355-15.348647 15.811088-22.395371 24.289179-8.852448 10.680192-16.912139 21.93293-24.179073 33.736193-2.091996 3.633467-3.831656 2.59848-4.183993-1.805723a34.08853 34.08853 0 0 1 5.130896-19.11424 247.119819 247.119819 0 0 1 59.676948-65.688685c13.851218-11.07657 27.812541-23.122065 42.808851-33.361836 16.449697-11.494969 33.692151-21.668678 51.749383-30.499104a320.493838 320.493838 0 0 1 34.30874-13.763134 232.762118 232.762118 0 0 1 54.766262-11.384864 168.570862 168.570862 0 0 1 43.403418 0.968924c3.237089 0.352336 6.430136 0.968925 9.557121 1.805723 4.272077 0.880841 8.235859 2.554438 11.869326 4.976749a8.588195 8.588195 0 0 1 3.809635 5.439191c0.308294 0.946904 0.44042 1.893807 0.484463 2.862732 0 2.972837-5.351106 3.457299-13.102504 1.541471a224.9887 224.9887 0 0 0-35.938294-4.294098 212.062365 212.062365 0 0 0-37.083388 2.950816c-18.717862 3.435278-36.775093 8.940532-54.215736 16.537781l-0.374358-0.088084z" fill="#1296db" p-id="42135"></path><path d="M958.420592 492.279768q-25.258103 10.526045-48.402188 25.103956-4.272077 2.708585-12.838252 8.764364l-3.809635 2.664542q-29.992621 20.259333-55.999439 45.077016-11.054549 10.812318-21.052089 22.879833-12.551978 15.106416-22.835792 31.842387l-14.071427-8.654259 14.313659 8.279901-14.313659-8.279901 14.313659 8.279901q-2.510396 4.294098-5.945674 6.870557-8.742343 6.452157-18.299463 1.827744-9.623183-4.646434-10.724234-17.352559l-0.044042-0.484462v-0.462442a50.802479 50.802479 0 0 1 7.641292-28.341045q12.618041-20.259333 28.649339-37.898165 16.031298-17.660853 34.991392-32.15068l9.909456-8.059691q21.756762-17.748937 33.648109-25.852671 25.544376-17.859042 53.753296-31.666218 17.859042-8.412027 36.334673-14.599932c18.982114-6.386094 38.668901-10.482003 58.64196-12.177621a184.844392 184.844392 0 0 1 47.279117 1.101051l-2.488375 16.29555 1.871787-16.405655-1.871787 16.427676 1.871787-16.427676q6.0778 0.704672 11.979431 2.290185l-4.294097 15.943214 3.391236-16.163424c6.29801 1.321261 12.287726 3.831656 17.616811 7.399061l-9.138721 13.741112 8.852448-13.939301a25.19204 25.19204 0 0 1 11.098591 15.833109l-16.141404 3.545383 15.767047-4.932707c0.748714 2.37827 1.167114 4.888665 1.233176 7.39906v0.4184-0.22021 0.22021q0 9.733288-8.059691 15.326625-4.382182 3.0389-10.305834 3.67751-6.474178 0.704672-15.1945-1.453387l3.963782-16.031298-3.303152 16.185445 3.303152-16.185445-3.303152 16.185445q-16.471718-3.325173-33.295773-3.963783l0.63861-16.51576-0.132126 16.51576 0.132126-16.51576-0.132126 16.51576q-17.220433-0.154147-34.198635 2.730606c-17.176391 3.126984-34.154593 8.323943-50.362059 15.392689l-5.152918 2.246143-5.835568-1.453387 4.007824-16.031298 6.342052 15.238542z m-7.663313-32.591101l5.703443 1.431366-4.007824 16.009277-6.606305-15.128436a262.99697 262.99697 0 0 1 58.069414-17.682875q19.818913-3.369215 39.968141-3.193047h0.242231-0.242231 0.506483q19.466576 0.770735 38.580817 4.624413l0.352336 0.066063-0.352336-0.066063 0.352336 0.066063 0.330315 0.088085q3.0389 0.748714 3.69953 0.66063-2.422312 0.286273-4.932707 2.025933-6.143863 4.272077-6.143863 11.825285h16.515761-16.515761 16.515761l-16.515761 0.418399c0.022021 0.550525 0.110105 1.101051 0.286273 1.651576l-0.22021-0.66063-0.154147-0.726694a7.883523 7.883523 0 0 0 3.457299 4.932707l-0.154147-0.088084-0.154147-0.110105a17.396601 17.396601 0 0 0-6.0778-2.554437l-0.44042-0.088085-0.462441-0.132126q-3.523362-0.924883-7.134809-1.343281l-0.308294-0.044042 0.308294 0.044042-0.308294-0.044042-0.308294-0.044042a153.706678 153.706678 0 0 0-39.52772-0.814778 217.193261 217.193261 0 0 0-50.934606 10.570087q-16.647887 5.593338-32.304827 12.948356-25.896712 12.684104-49.679408 29.287949-10.724234 7.310977-31.379945 24.179073-6.95864 5.659401-10.724234 8.676279-16.559803 12.684104-30.609209 28.120835-14.027386 15.458752-25.059914 33.163647a17.748937 17.748937 0 0 0-2.664543 9.909457l-16.51576 0.484462 16.449697-1.431366q-0.044042-0.616588-0.462441-1.717639-1.95987-5.196959-7.332998-7.795439-8.434048-4.073888-15.767046 1.365303-2.025933 1.497429-2.972837 3.126984l0.110106-0.198189-0.110106 0.198189 0.110106-0.198189 0.110105-0.176168q11.51699-18.717862 25.544376-35.652022 11.098591-13.388777 23.694611-25.676502 28.01073-26.733511 59.853116-48.226021l3.677509-2.620501q9.292868-6.562262 14.313659-9.689246 25.478313-16.07534 53.290854-27.658393l5.064834-2.114018z" fill="#1296db" p-id="42136"></path><path d="M939.064121 514.410887c-7.443103 3.171026-14.996311 5.945674-22.263245 9.55712-7.421082 3.303152-14.665995 6.980661-21.71272 11.010507a142.475961 142.475961 0 0 0-15.106416 9.55712 399.130879 399.130879 0 0 0-51.330983 36.114463c-7.112788 5.945674-13.807176 12.331768-20.083165 19.158282-4.007825 4.382182-8.125754 8.588195-11.935389 13.080483a157.318124 157.318124 0 0 1-12.1556 13.102503c-5.43919 5.152917-8.125754-8.808406 0.572546-20.259333a263.547496 263.547496 0 0 1 55.559018-50.207912c6.29801-4.007825 12.507936-8.500111 19.114241-13.102503l19.11424-12.706125c7.266935-4.11793 14.621953-8.412027 22.087077-12.331768 7.465124-3.91974 15.018332-7.641292 22.857812-10.790297l14.313659-6.033758 14.643975-5.351106c7.355019-2.774648 15.106416-4.492287 22.571539-6.892578 7.443103-2.37827 15.392689-3.633467 23.033981-5.064833a209.155591 209.155591 0 0 1 36.334673-4.404203h8.213838c10.327856 1.255198 13.212608 4.11793 14.33568 7.663313 0.374357 0.748714 0.638609 1.541471 0.770736 2.37827 0 1.145093-0.880841 2.003912-2.862732 2.774648a17.330538 17.330538 0 0 1-8.03767 1.32126c-20.875921-0.198189-41.421527 2.224122-61.658839 7.266935-7.839481 1.651576-15.480773 4.404203-23.23217 6.430136a146.439743 146.439743 0 0 0-22.857813 8.500112l-0.286273-0.770736z" fill="#1296db" p-id="42137"></path><path d="M945.516278 529.627408l-6.980661 2.862732q-9.843393 4.007825-14.357701 6.253968l-0.330316 0.176168-0.330315 0.154147 0.330315-0.154147-0.330315 0.154147q-10.371898 4.624413-20.237312 10.239771l-0.176168 0.110105-0.198189 0.088084 0.198189-0.088084-0.198189 0.088084q-5.901632 3.171026-13.344734 8.478091l-0.572547 0.396378-0.572546 0.352336 0.572546-0.352336-0.572546 0.352336q-25.984797 15.392689-49.238987 34.639055-9.77733 8.169796-18.45361 17.616811l-4.073888 4.404203q-5.130896 5.483232-7.443103 8.191817-6.165884 7.443103-13.25665 14.291639-4.844623 4.580371-10.812318 5.505253-8.412027 1.321261-14.886205-4.294098-6.650346-5.725464-7.266935-15.987256-0.880841-14.445785 8.918511-27.37212l0.22021-0.286273 0.22021-0.286274-0.22021 0.286274 0.22021-0.286274q12.772188-15.370668 27.614352-28.781465 14.842163-13.388777 31.423987-24.553431l0.176168-0.110105 0.176168-0.132126-0.176168 0.132126 0.176168-0.132126q4.470266-2.840711 13.785155-9.380952l4.77856-3.325173 19.884975-13.25665 0.528505-0.286273-0.528505 0.286273 0.528505-0.286273 5.152917-2.928795q11.450927-6.51822 17.396601-9.645204 13.763134-7.266935 24.355241-11.49497l14.467807-6.0778 14.974289-5.505253q4.99877-1.871786 14.908227-4.646434 5.659401-1.607534 8.301922-2.444333 7.244914-2.334227 21.316341-4.888665l3.721552-0.682651 3.0389 16.229487-3.413257-16.163424 3.413257 16.163424-3.413257-16.163424q19.378492-4.095909 39.197405-4.734518h0.550525-0.286273H1043.862127l1.012966 0.110105-0.990945-0.132126 0.990945 0.132126q22.813771 2.730606 28.076793 18.938072l-15.723004 5.108875 14.842164-7.244913c1.07903 2.202101 1.805723 4.514308 2.202101 6.892577l0.22021 1.365303v1.365303-1.365303 1.365303q0 13.058461-13.47686 18.211378l-5.879611-15.414709 6.408115 15.194499a34.08853 34.08853 0 0 1-15.568857 2.59848l1.123072-16.471719-0.176168 16.515761c-19.378492-0.198189-38.690922 2.069975-57.474847 6.760451l-0.330315 0.088084-0.330315 0.066063 0.330315-0.066063-0.330315 0.066063q-4.029846 0.836799-12.640062 3.413258-6.430136 1.937849-9.799352 2.818689-7.861502 2.025933-20.237311 7.575229l-16.031299 7.200872-6.474178-17.220433 15.458752-5.813548 6.452157 15.216521z m2.972837-37.12743l6.320031 16.890118-15.458752 5.791527-6.760451-15.062374q14.908226-6.694388 25.478313-9.424994 2.774648-0.726693 8.588196-2.466354 9.99754-2.994858 15.414709-4.13995l3.369216 16.185445-3.347195-16.185445 3.347195 16.185445-4.007825-16.031298a260.926995 260.926995 0 0 1 65.842832-7.751397h0.462441l0.484462 0.044042c0.176168 0 0.330315-0.022021 0.484463-0.088084l0.264252-0.110105 0.286273-0.110105q-1.717639 0.66063-3.457299 2.356248-4.316119 4.206014-4.316119 10.305835h16.515761-16.515761 16.515761l-16.295551 2.730606a7.81746 7.81746 0 0 0 0.682652 2.114017l-0.506484-1.034988-0.352336-1.10105q0.902862 2.81869 3.369215 4.316118l-0.132126 0.044042q-1.409345-0.418399-3.853677-0.704672l1.981891-16.405656-1.981891 16.405656 1.981891-16.405656v16.515761h-8.213838v-16.515761 16.515761-16.515761l0.528504 16.515761q-16.890118 0.550525-33.471941 4.051867l-0.176168 0.044042 0.198189-0.044042-0.198189 0.044042-0.176168 0.022021-3.875699 0.726693q-11.957411 2.18008-17.176391 3.831656-3.193047 1.034988-9.447015 2.796669-8.522132 2.400291-12.463894 3.875699l-14.621953 5.351106-5.681422-15.502794 6.386095 15.216521-14.555891 6.121842q-9.028616 3.633467-21.338362 10.107645-5.43919 2.862732-16.383635 9.094679l-5.263022 2.994858-8.125754-14.379722 8.147775 14.379722-8.147775-14.379722 9.160742 13.741113-18.849988 12.551978-4.624413 3.237089q-9.953498 6.95864-15.062374 10.21775l-8.852448-13.939302 8.852448 13.939302-8.852448-13.939302 9.204784 13.697071q-14.621953 9.843393-27.702435 21.668678-13.080482 11.825285-24.355242 25.390229l-12.706125-10.570087 12.706125 10.570087-12.706125-10.570087 13.168567 9.99754q-2.422312 3.149005-2.268165 5.373128-0.22021-3.611446-4.095909-6.958641-5.108875-4.404203-11.803263-3.369215-4.183993 0.66063-7.024704 3.325173 5.769506-5.549296 11.010507-11.891347 2.81869-3.303152 8.45607-9.358931l3.941761-4.228035q10.129666-11.010507 21.668678-20.655711 25.258103-20.919963 53.467022-37.611892l8.412027 14.203554-8.412027-14.203554 8.412027 14.203554-9.55712-13.454839q9.138721-6.51822 16.846076-10.658171l7.81746 14.533869-7.81746-14.533869 7.81746 14.533869-8.191817-14.313659q11.29678-6.474178 23.188128-11.759221l6.716409 15.084394-6.716409-15.084394 6.716409 15.084394-7.399061-14.754079q5.659401-2.840711 16.691929-7.310977 4.404203-1.783702 6.540241-2.686564l15.85513-6.716409z" fill="#1296db" p-id="42138"></path><path d="M239.170233 738.034284a2093.009297 2093.009297 0 0 1 72.184884 58.686003c8.588195 7.37704 17.59479 14.247596 25.896712 21.910908 14.820142 13.366755 28.693381 27.438183 43.117146 41.663759 6.980661 7.090767 13.67505 14.643974 20.567627 21.910909l9.55712 11.362843 4.690476 5.351107 2.091996 2.686563 1.629555 2.091997 3.633468 4.602392s0.572546 0.85882 0.946903 0.946903v-1.431366l0.660631-2.774648c0.484462-1.915828 1.057009-3.809635 1.651576-5.549295l0.858819-2.664543 2.466354-5.637379a96.826399 96.826399 0 0 1 21.052089-30.212832 69.850656 69.850656 0 0 1 32.78929-17.396601c7.729376-1.431366 7.553208 4.77856 3.919741 11.847306a77.690137 77.690137 0 0 1-17.308517 22.087077 77.844284 77.844284 0 0 0-20.479543 28.098814l-1.607534 3.91974c-0.66063 1.629555-1.233177 3.25911-1.827745 5.064834-1.145093 3.347194-2.091996 6.980661-3.060921 10.614128l-1.51945 5.461212c-1.012967 0.66063-2.069975 1.277219-3.149005 1.805723l-5.461211 0.66063h-4.404203c0-1.431366 2.59848 12.926335 1.343282 6.804494h-0.66063l-2.774648-1.145093-11.010507-4.690476c-5.43919-6.694388-10.504024-13.278671-16.141403-19.884976l-8.412028-9.55712c-5.351106-6.694388-11.186675-12.992398-16.824054-19.11424a652.196372 652.196372 0 0 0-60.711936-57.364741 1682.801848 1682.801848 0 0 0-71.215959-58.796108 1454.245744 1454.245744 0 0 0-45.517436-34.330761c-23.122065-16.912139-47.301138-32.987479-70.907665-49.52526-18.475631-12.794209-36.995304-24.663536-54.986472-38.22848-3.91974-2.862732-7.927565-5.63738-11.759222-8.808406-14.247596-11.759221-17.396601-17.286496-15.965235-24.377263a18.365526 18.365526 0 0 1 1.057009-4.77856c2.091996-4.580371 9.55712-2.202101 20.457522 5.461212 31.446008 21.800804 65.292307 45.891793 99.0285 68.551416 25.544376 16.912139 51.529173 35.453833 76.501002 54.105632l-0.396378 0.572546z" fill="#1296db" p-id="42139"></path><path d="M249.2999 724.997844q37.215514 28.89157 72.75743 59.148444 3.149005 2.686564 9.579141 7.993628 11.274759 9.248826 16.802034 14.313659 12.199642 11.010507 35.40979 34.066508l8.147775 8.037671q4.624413 4.690476 13.168567 13.961322 5.174938 5.593338 7.751397 8.323944l0.330315 0.352336 9.887435 11.759221 4.756539 5.41717 2.37827 3.0389 1.695618 2.202101 3.941761 4.954728 0.374357 0.572547-0.374357-0.572547 0.374357 0.572547q-2.972837-4.448245-8.786384-5.901632l-4.007825 16.009277h-16.51576v-3.391236l1.145092-4.690476q0.836799-3.413257 1.981892-6.892577l1.10105-3.303153 2.81869-6.452157q4.404203-9.953498 10.614129-18.89403 6.231947-8.918511 14.027386-16.493739 4.382182-4.139951 9.1167-7.553208 4.734518-3.391236 9.865414-6.121842 5.152917-2.730606 10.592108-4.734518 5.461211-2.003912 11.142633-3.281131l0.286273-0.044042 0.286273-0.066063-0.286273 0.066063 0.286273-0.066063q8.147775-1.497429 14.599932 1.629555 8.808406 4.272077 10.790297 14.005365 1.871786 9.028616-3.765593 20.017102-4.051867 7.707355-9.33691 14.467806-5.285043 6.760451-11.715179 12.441873a61.90107 61.90107 0 0 0-16.229488 22.241224l-1.057008 2.576459-0.484463 1.145092q-0.66063 1.585513-1.321261 3.743573l-0.066063 0.176168-0.066063 0.198189 0.066063-0.198189-0.066063 0.198189q-0.946904 2.774648-2.708584 9.469036l-3.259111 11.561032-5.064833 3.391236 5.064833-3.391236-5.064833 3.391236q-2.422312 1.629555-5.064833 2.928795l-2.488375 1.211156-9.226804 1.145093h-21.93293v-16.515761 16.515761-16.515761q0-2.642522 0.814777-5.152917 3.126984-9.733288 13.23463-11.274759 9.77733-1.497429 15.723004 6.386094 1.871786 2.532417 2.774647 5.703443l0.528505 2.202101 0.836798 4.272077 0.616589 3.589425q0.330315 2.356248 0.066063 4.55835-0.770735 6.430136-5.703443 10.614129-8.125754 6.892577-17.748937 2.334227-3.677509-1.73966-6.143863-4.99877-1.607534-2.136038-2.466354-4.712497-0.22021-0.66063-0.396378-1.387324l-0.44042-2.069975 16.163424-3.303152v16.51576h-3.941761l-5.813548-2.378269-14.908227-6.364073-2.576458-3.149005 2.576458 3.149005-2.576458-3.149005-5.681422-7.090767q-6.716409-8.412027-10.21775-12.507936l-8.522133-9.667225-0.22021-0.308294 0.22021 0.308294-0.22021-0.308294q-4.910686-6.121842-15.789067-17.903085l-0.154147-0.176168-0.132126-0.154147q-27.746478-29.794432-59.126423-55.845291l-0.154147-0.132126-0.154147-0.132127 0.154147 0.132127-0.154147-0.132127q-35.101496-30.609209-70.511287-58.223561-28.186898-21.888888-44.96691-33.912361-14.864184-10.85636-45.363289-31.820365-16.978202-11.671137-25.434271-17.616812-5.879611-4.073888-17.837022-12.155599-25.147998-17.000223-37.611892-26.425217l-2.554437-1.827744q-6.452157-4.668455-9.755309-7.399061-12.485915-10.305835-17.286496-17.792979-6.782472-10.63615-4.360161-22.615582l16.185445 3.303152-16.449697-1.387323c0.242231-3.082942 0.924883-6.143863 1.981891-9.072658l0.22021-0.616589 0.286273-0.594567-0.286273 0.594567 0.286273-0.594567q4.051867-8.852448 13.432819-11.274759 6.033758-1.541471 12.992398 0.396378 7.883523 2.202101 18.541694 9.689246 9.77733 6.782472 30.146768 21.008048 45.561478 31.864407 68.595459 47.34518 36.312652 24.068968 77.161633 54.590093l12.551978 9.358931-9.072658 13.608987-13.741113-9.160742 10.129667-13.03644z m-32.370891 16.647887l8.874469-13.344735 13.763133 9.160742-9.909456 13.212608q-40.100266-29.948579-75.79633-53.621169-23.298233-15.63492-69.123963-47.675495-20.303375-14.203554-30.19081-21.05209-6.033758-4.250056-8.500112-4.932707 1.629555 0.44042 4.228035-0.22021 5.813548-1.497429 8.301922-6.936619l-14.99631-6.892578 14.99631 6.892578-14.99631-6.892578 15.502794 5.659401a1.937849 1.937849 0 0 0-0.110106 0.506483l-0.066063 0.968925-0.198189 0.924883q0.22021-1.101051-0.176168-1.739661 1.981891 3.104963 10.459982 10.107646 2.488375 2.047954 8.081712 6.0778l3.126984 2.268164q11.759221 8.89649 36.202547 25.434271 12.111558 8.191817 18.277442 12.463894 8.345964 5.835569 25.214061 17.418622 30.895483 21.250279 45.869772 32.194723 17.330538 12.419852 46.04594 34.727139 36.114463 28.186898 71.920632 59.368654l-10.85636 12.463894 10.85636-12.463894-10.85636 12.463894 10.570087-12.706126q32.987479 27.416162 62.297448 58.862171l0.132126 0.176168 0.154147 0.154147q11.671137 12.640062 17.286496 19.664766l-12.904314 10.327855 12.904314-10.327855-12.904314 10.327855 12.397831-10.922423 8.588196 9.755309q3.853677 4.514308 10.900401 13.344735l5.505254 6.826514-12.81623 10.437961 12.81623-10.437961-12.81623 10.437961 6.474178-15.1945 10.834339 4.624413 2.774648 1.145093-6.320031 15.260563v-16.515761h14.159512l2.686563 13.212609 0.176168 0.770735-0.352336-1.211156q-0.85882-2.532417-2.466353-4.668455-2.444333-3.25911-6.143863-4.99877-9.623183-4.55835-17.748938 2.334228-4.910686 4.183993-5.703442 10.592107-0.264252 2.18008 0.044042 4.183993l-0.44042-2.334228q-0.374357-2.136038-0.660631-3.413257v-0.154147q0.770735 2.796669 2.59848 5.241002 5.945674 7.883523 15.700983 6.386094 10.107645-1.541471 13.212608-11.252739 0.792757-2.444333 0.792757-4.954728h-16.515761 16.515761-16.515761v-16.51576h4.382182v16.51576l-2.003912-16.405655 5.43919-0.660631 2.025933 16.383635-7.266934-14.820143q0.66063-0.330315 1.233177-0.726693l9.182762 13.741113-9.182762-13.741113 9.182762 13.741113-15.899172-4.470266 1.453387-5.196959q2.069975-7.839481 3.413257-11.759222l15.63492 5.351107-15.63492-5.351107 15.63492 5.351107-15.767046-4.97675q1.101051-3.47932 2.312207-6.386094l0.484462-1.211155 1.211156-2.906774a94.778444 94.778444 0 0 1 24.707578-33.978425q4.183993-3.677509 7.597249-8.059691 3.435278-4.404203 5.945674-9.204784 0.594567-1.101051 0.726694-1.673597-0.330315 1.321261 0.110105 3.457299 1.277219 6.187905 7.134808 9.028616 3.303152 1.585513 5.813548 1.123072l-2.994858-16.229488 2.994858 16.229488-2.994858-16.229488 3.567404 16.119383q-3.501341 0.770735-6.870556 2.025933-3.369215 1.233177-6.540241 2.906774-3.171026 1.695618-6.0778 3.787614-2.928795 2.091996-5.373127 4.404203-5.505254 5.351106-9.909457 11.671137-4.404203 6.320031-7.509166 13.344735l-2.488374 5.637379-15.106416-6.650346 15.723004 5.064833-0.924882 2.840711q-0.748714 2.246143-1.233177 4.183993l-0.660631 2.774648-16.07534-3.875699h16.515761v22.593561l-20.523585-5.130897q-6.562262-1.651576-10.680192-7.81746l13.741113-9.160741-13.741113 9.160741 13.741113-9.160741-12.948357 10.239771-3.743572-4.734518-1.541471-1.981891-2.114017-2.686564 12.992398-10.21775-12.441873 10.87838-4.888665-5.593337-9.55712-11.384864 12.640062-10.614129-12.001453 11.340822q-2.708585-2.862732-8.03767-8.632237-8.191817-8.852448-12.111558-12.860273l-8.191817-8.081712q-22.681644-22.505476-34.506929-33.185668-4.844623-4.470266-15.414709-13.124524-6.694388-5.505254-10.019562-8.367985-35.013412-29.772411-71.612337-58.223561l-12.111558-9.424994z" fill="#1296db" p-id="42140"></path><path d="M445.286924 898.743644c3.523362-4.602392 7.178851-9.579141 10.900402-13.586965 1.321261-1.629555 2.488375-3.347194 3.919741-4.976749a126.841041 126.841041 0 0 1 17.022243-14.996311c2.774648-1.915828 5.549296-4.029846 8.588196-5.835569a17.440643 17.440643 0 0 1 14.071428-2.40029c1.541471 0 0.66063 2.774648-0.572547 5.064833-1.255198 2.312206-2.400291 4.602392-3.831656 5.285043a90.748599 90.748599 0 0 0-18.057232 10.790297c-3.655488 3.193047-6.826514 6.804493-9.579141 10.790297a198.189126 198.189126 0 0 0-16.07534 21.514531 145.07444 145.07444 0 0 0-7.927565 13.388776c-1.805723 3.633467-2.752627 7.553208-4.183993 11.27476a24.179073 24.179073 0 0 1-0.88084 2.40029c-1.431366 2.950816-2.576459 3.633467-5.439191 3.060921h-1.915828a4.139951 4.139951 0 0 1-2.047954-1.321261 4.029846 4.029846 0 0 1-0.814778-1.409345 4.404203 4.404203 0 0 1-0.088084-2.422311 62.429575 62.429575 0 0 1 7.729376-21.71272c2.862732-4.976749 6.121842-9.55712 9.55712-14.621953l-0.374357-0.286274z" fill="#1296db" p-id="42141"></path><path d="M432.206442 888.65802l1.981891-2.620501q6.342052-8.279901 9.909456-12.111557l12.089537 11.230717-12.750167-10.504024 12.750167 10.504024-12.750167-10.504024 1.211156-1.541471q1.827744-2.422312 3.082942-3.853677l0.176168-0.22021 0.22021-0.220211-0.22021 0.220211 0.22021-0.220211q8.852448-9.33691 19.224345-16.95618l0.198189-0.132126 0.198189-0.154148-0.22021 0.154148 0.22021-0.154148 2.15806-1.51945q4.624413-3.25911 7.377039-4.910686l8.45607 14.203554-9.182763-13.741112a34.176614 34.176614 0 0 1 27.328078-4.646434l-4.095908 15.987256v-16.515761 16.515761-16.515761q5.285043 0 9.623183 2.906774 4.514308 3.016879 6.496199 8.103733 1.849765 4.77856 0.880841 10.151688-0.748714 4.029846-3.060921 8.301922l-0.264253 0.484462q-4.800581 8.940532-11.098591 11.869327a75.157721 75.157721 0 0 0-14.974289 8.940532l-10.085625-13.102504 10.900402 12.397831c-2.576459 2.290185-4.866644 4.866644-6.826514 7.707355l-0.506483 0.770736-0.594568 0.704672 0.594568-0.704672-0.594568 0.704672q-4.712497 5.483232-9.380952 11.891348-1.827744 2.532417-5.461211 7.993628-3.831656 5.769506-7.046725 11.891347-0.484462 0.990946-1.73966 4.734518-1.034988 3.104963-1.673597 4.822602l-15.41471-5.945673 15.811089 4.77856-15.811089-4.77856 15.811089 4.77856q-0.616588 2.047954-1.453387 4.007824l-0.176169 0.418399-0.176168 0.396379 0.176168-0.396379-0.176168 0.396379q-7.399061 15.282584-23.562485 12.045494l3.237089-16.185445v16.51576h-4.250055l-2.268165-0.66063 2.268165 0.66063-2.268165-0.66063q-1.981891-0.572546-3.787614-1.541471-1.651576-0.836799-3.126984-1.981891-1.761681-1.409345-3.082942-2.928795-1.233177-1.409345-2.290186-3.25911-0.946904-1.629555-1.585513-3.523362-0.66063-1.871786-0.924882-3.809636-0.264252-2.047954-0.176168-4.007824 0.110105-1.981891 0.594567-3.941762l16.031298 3.963783-16.317571-2.576459 16.29555 2.576459-16.29555-2.576459q1.145093-7.266935 3.611446-14.181533 2.466354-6.914598 6.165884-13.25665 2.642522-4.580371 8.434049-13.01442l1.73966-2.576458 13.653028 9.292868-9.909456 13.212608-13.763134-10.349877 10.217751-13.234629z m26.160964 20.149228l-13.080482-10.063604 9.909456-13.212608 12.992399 9.733288-8.852448 13.036441-1.805723 2.642521q-5.064833 7.399061-7.15683 11.032528-2.158059 3.69953-3.589425 7.707355-1.431366 4.029846-2.114017 8.235859l-0.110105 0.704673 0.110105-0.704673-0.110105 0.704673-0.154147 0.704672q0.264252-1.145093 0.330315-2.312206 0.066063-1.145093-0.110105-2.37827-0.154147-1.101051-0.528505-2.202101-0.396378-1.123072-0.902861-2.047954-0.66063-1.101051-1.365303-1.915829-0.748714-0.880841-1.871786-1.805723-0.836799-0.616588-1.761681-1.101051-1.07903-0.572546-2.268165-0.924882l-4.602392 15.85513 4.602392-15.85513-4.602392 15.85513v-16.515761h3.545383l1.607535 0.330316q-3.875698-0.770735-8.103734 1.629555-3.391236 1.893807-4.55835 4.316118l14.886206 7.200872-14.886206-7.200872 14.886206 7.200872-15.238542-6.386094 0.264252-0.770736 0.19819-0.594567-0.19819 0.594567 0.19819-0.594567 0.22021-0.572546q0.374357-0.990946 1.167113-3.369215 1.981891-5.989716 3.809636-9.623184 4.007825-7.707355 8.808405-14.908226 4.029846-5.989716 6.209926-9.028616 5.461211-7.553208 11.098591-14.093449l12.507936 10.790297-12.507936-10.790297 12.507936 10.790297-13.653028-9.314889c3.523362-5.130896 7.663313-9.799351 12.331768-13.917281l0.396378-0.352336 0.44042-0.330315c6.606304-5.064833 13.763134-9.358931 21.140174-12.662083q-3.215068 1.475408-4.800582 3.809635 0.088084-0.110105 0.792757-1.409345l0.286273-0.572546q-0.22021 0.616588-0.396378 1.497429-0.704672 3.831656 0.836798 7.773418 1.805723 4.624413 5.945674 7.399061 3.985804 2.642522 8.720322 2.642521H497.674916h2.091997-2.091997l-2.025933-0.506483a0.968925 0.968925 0 0 0-0.770735 0.132126l-0.374358 0.22021-0.374357 0.22021q-1.629555 0.990946-5.130896 3.479321l-2.510396 1.761681-9.380952-13.586966 9.358931 13.586966-9.358931-13.586966 9.777331 13.300693q-7.993628 5.879611-14.820143 13.058461l-11.979431-11.362843 11.979431 11.362843-11.979431-11.362843 12.375809 10.944444q-0.396378 0.44042-1.475408 1.893807-1.277219 1.673597-2.069975 2.642521l-0.308294 0.374358 0.308294-0.374358-0.308294 0.374358-0.330315 0.352336q-2.466354 2.664543-7.839481 9.689246l-2.091997 2.730606z" fill="#1296db" p-id="42142"></path><path d="M278.279554 847.588829l-54.986472-43.491503c-6.782472-5.064833-13.763134-9.55712-20.63369-14.732058-12.045495-8.808406-24.377262-17.308517-36.819136-25.610439-12.419852-8.323943-24.75162-16.824055-37.655934-24.377263a1402.91476 1402.91476 0 0 0-34.418844-20.083165 561.139479 561.139479 0 0 1-43.601608-26.381174c-4.294098-3.082942-2.774648-4.492287 2.114017-4.11793a60.623852 60.623852 0 0 1 22.087077 6.606304c15.678962 7.729376 30.785378 16.427676 45.803709 25.236082 14.97429 8.808406 30.102726 17.682874 44.438407 27.812541 17.198412 11.957411 35.850211 23.518443 53.334896 36.0484 19.136261 13.961323 37.479766 28.67136 56.131564 43.00704l34.30874 26.865637c17.220433 13.67505 34.044488 28.01073 50.38408 42.544599 12.728146 11.384864 25.544376 22.087077 37.281577 34.220656 2.686564 2.59848 5.285043 5.174938 7.839481 7.927565 9.579141 10.526045 10.900402 14.754079 10.614129 19.136261a12.1556 12.1556 0 0 1 0 2.774648c-0.85882 2.37827-6.011737-0.572546-13.388777-7.355019-22.065056-19.995081-44.262238-41.399506-68.155038-61.658839a1474.439013 1474.439013 0 0 0-54.590094-44.174154l-0.088084-0.198189z" fill="#1296db" p-id="42143"></path><path d="M268.017761 860.537185l-54.964451-43.491503 10.239772-12.948356-9.865414 13.212609 9.865414-13.212609-9.865414 13.212609q-3.104963-2.312206-9.623183-6.826515-7.310977-5.086854-11.054549-7.905544-15.789067-11.51699-36.092442-25.103956l-5.989716-4.029845q-20.435501-13.741113-30.82942-19.818913-14.952269-9.028616-34.220656-19.97306-26.601385-14.754079-44.7467-27.085847-4.228035-2.994858-6.474178-6.275989-2.422312-3.523362-3.082942-7.619271-0.990946-6.606304 2.642522-12.155599 6.055779-9.248826 19.598702-8.191818 7.707355 0.770735 14.798121 2.884753 7.090767 2.114017 13.653029 5.549296l-7.641292 14.643974 7.310977-14.820142-7.310977 14.820142 7.310977-14.820142q17.837021 8.808406 46.816676 25.808628 30.388999 17.792979 45.649562 28.583276 7.244914 5.020791 22.725686 15.260563 20.589648 13.586966 30.697294 20.831879 13.564945 9.909456 39.483678 30.080705 11.384864 8.89649 17.088307 13.278672l34.440866 26.953721q24.179073 19.202324 51.176836 43.205229l9.160742 8.103734q19.642744 17.286496 29.001675 26.975742l-11.869326 11.472948 11.450927-11.891348-11.450927 11.891348 11.450927-11.891348q4.756539 4.580371 8.47809 8.588196 8.323943 9.138721 11.605075 15.568857 3.941762 7.663313 3.413257 15.85513l-16.493739-1.057009 16.405655-1.849765c0.242231 2.158059 0.242231 4.316119 0 6.474178l-0.22021 1.915828-0.660631 1.827745 0.660631-1.827745-0.660631 1.827745q-2.202101 6.209926-7.927565 9.424994-4.624413 2.642522-10.107645 2.268164-4.77856-0.308294-9.77733-3.082942-5.263022-2.950816-12.287726-9.424994-7.222893-6.540241-21.93293-20.149228-29.948579-27.702436-45.715625-41.069191-26.381175-22.395371-53.995526-43.667671l-2.994858-2.312206-1.783702-3.589425 14.754079-7.37704-10.239772 12.948356z m23.386317-23.628548l1.73966 3.47932-14.754079 7.399061 10.063603-13.080482q28.23094 21.756762 55.184661 44.636595 16.29555 13.829197 46.772634 42.016095 14.577911 13.476861 21.910909 20.105186 4.139951 3.809635 5.945674 4.844623-1.453387-0.836799-4.095909-1.012967-4.360161-0.286273-8.301922 1.937849-4.976749 2.81869-6.892577 8.147775l15.524815 5.593338-15.524815-5.593338 15.524815 5.593338-16.405656-1.849765a4.095909 4.095909 0 0 0 0 0.924882l-0.176168-1.453387 0.110105-1.475407q-0.066063 0.880841 0.176168 1.343281-1.321261-2.532417-6.386094-8.147775-3.126984-3.325173-7.222892-7.266934l-0.220211-0.220211 0.220211 0.220211-0.220211-0.220211-0.176168-0.198189q-8.456069-8.720322-27.107868-25.147998l-9.292868-8.213838q-26.315112-23.386317-49.591323-41.883969l-34.198635-26.777553q-5.791527-4.448245-17.264475-13.388776-25.522355-19.884976-38.404649-29.287949-9.601162-6.870556-29.684326-20.149227-15.789067-10.437961-23.562485-15.855131-14.093449-9.953498-43.293314-27.041805-27.966688-16.383634-44.768721-24.685556l-0.154147-0.088085 0.154147 0.088085-0.154147-0.088085-0.176169-0.088084q-3.743572-1.95987-7.795439-3.171026-4.051867-1.211156-7.927565-1.585513h-0.088084q0.484462-0.022021 1.145093-0.132126 5.945674-1.012967 9.55712-6.51822 3.303152-5.042812 2.400291-10.966465-0.528504-3.391236-2.400291-6.099821-1.057009-1.541471-2.136038-2.290185 16.912139 11.494969 42.456515 25.654481 19.664766 11.164654 34.617034 20.19327 11.274759 6.606304 32.591101 20.919963l5.901631 3.985804q20.8539 13.961323 37.545829 26.138943 3.25911 2.466354 10.085625 7.200872 6.980661 4.844623 10.526044 7.487145l0.198189 0.154147-0.198189-0.132126 0.198189 0.132126 55.140619 43.64565 2.884753 2.268164z" fill="#1296db" p-id="42144"></path><path d="M276.165537 865.183619a2243.743138 2243.743138 0 0 0-52.960539-35.850211c-6.386094-4.316119-13.190587-8.03767-19.796892-12.331768a2604.73362 2604.73362 0 0 0-69.586404-43.88788c-10.41594-6.320031-21.030068-12.331768-31.556113-18.365526-13.564945-7.641292-27.328078-14.798121-40.342498-23.782695-4.007825-2.862732-2.202101-4.316119 2.400291-4.11793a52.12374 52.12374 0 0 1 20.259333 6.011737c14.049407 7.37704 28.098814 14.820142 41.883968 22.769728 13.763134 7.927565 27.328078 16.427676 40.804939 25.236082 15.965235 10.504024 33.471941 20.171249 49.987702 30.675273 18.277442 11.671137 36.334673 23.518443 54.127653 35.762127 11.010507 7.355019 21.71272 15.304605 32.5911 22.945896a1003.497608 1003.497608 0 0 1 47.807622 36.709031c6.209926 4.580371 11.957411 9.55712 17.969147 14.621953l9.006595 7.465124 8.301922 8.125754 7.355019 7.266934c8.03767 10.327856 9.579141 14.533869 8.6983 18.255421a12.772188 12.772188 0 0 1 0 2.400291c-0.748714 1.805723-6.011737-0.880841-11.847305-7.37704a674.878016 674.878016 0 0 0-63.090205-54.479989l-25.632461-19.136261-26.29309-18.541694-0.088084-0.374357z" fill="#1296db" p-id="42145"></path><path d="M266.762564 878.748564q-31.005588-21.514531-52.586182-35.585959-3.303152-2.202101-10.107645-6.320031-6.386094-3.875698-9.689246-6.011737-34.198635-22.329308-69.145984-43.601607-8.940532-5.417169-27.328079-15.943215l-3.831656-2.202101-8.25788-4.580371q-22.285266-12.37581-33.273753-19.97306-4.448245-3.171026-6.716409-6.914598-2.422312-4.029846-2.620501-8.588195-0.242231-6.275989 3.523363-11.252739 6.033758-7.927565 18.277441-7.443102l0.374358 0.022021 0.352336 0.044042a68.947795 68.947795 0 0 1 26.645427 7.927565q26.447238 13.829197 42.324389 22.989938 18.761904 10.790297 41.619716 25.720545 8.588195 5.659401 26.909679 16.603844 15.326626 9.138721 22.901855 13.961323 30.278894 19.33445 54.612114 36.114463 7.15683 4.77856 21.382405 14.952269 7.575229 5.417169 11.340822 8.059691 26.337133 19.048177 48.798567 37.457745l-10.482002 12.772188 9.821372-13.278672-9.821372 13.278672 9.821372-13.278672q5.659401 4.183993 15.987256 12.904314l2.796669 2.356249 9.424994 7.81746 8.808405 8.588195 8.169797 8.103733 0.66063 0.836799-0.66063-0.836799 0.66063 0.836799q6.980661 8.984574 9.689246 14.908227 4.007825 8.808406 2.069976 17.220432l-16.075341-3.721551 16.427677-1.51945-16.449698 1.51945 16.449698-1.51945q0.264252 2.708585 0 5.41717l-0.22021 2.554437-0.990946 2.356249 0.990946-2.356249-0.990946 2.356249q-2.862732 6.826514-9.77733 9.469036-4.33814 1.673597-9.094679 0.990945-4.316119-0.594567-8.742343-3.193047-5.85759-3.435278-11.759221-10.019561l12.287726-11.010507-11.539012 11.803263 11.539012-11.825284-11.539012 11.825284q-29.133802-28.495192-61.548734-53.180748l-25.500334-19.026156 9.865414-13.212609-9.513078 13.476861-31.291861-22.087077-1.585513-6.320031 16.009278-4.007825-9.402973 13.564945z m23.914821-23.606527l1.607534 6.408115-16.009277 4.007824 9.513078-13.498881 26.469259 18.67382 25.918733 19.356471q34.044488 25.918733 64.653697 55.82327l0.374357 0.374358-0.374357-0.374358 0.374357 0.374358 0.374358 0.396378q2.444333 2.752627 3.875698 3.589425-1.211156-0.704672-3.391236-1.012966-3.69953-0.528504-7.355019 0.88084-6.209926 2.400291-8.808405 8.522133l15.238541 6.430136-15.238541-6.430136 15.238541 6.430136-16.449697-1.541471q-0.044042 0.330315 0 0.66063l-0.242231-2.642522 0.22021 2.642522-0.22021-2.642522 0.594567-2.598479q-0.594567 2.532417 0.044042 3.91974-1.101051-2.422312-5.681422-8.323943l13.01442-10.129667-13.01442 10.129667 13.01442-10.129667-11.583054 11.759222-7.310976-7.222893-8.323944-8.125754 11.539012-11.803263-10.526045 12.706125-9.072658-7.531187-2.862731-2.422312q-9.491057-8.015649-14.31366-11.561032l-0.330315-0.242231 0.352336 0.242231-0.352336-0.242231-0.308294-0.264252q-21.690699-17.770958-46.816676-35.960316-3.897719-2.730606-11.605074-8.235859-13.785155-9.887435-20.875921-14.621954-23.8928-16.449697-53.621169-35.431811-7.178851-4.55835-22.109099-13.476861-18.960093-11.340822-28.03275-17.308517-22.087077-14.423764-40.056225-24.77364-15.304605-8.808406-41.399506-22.505477a36.202547 36.202547 0 0 0-13.917281-4.117929l1.431366-16.449698-0.682652 16.515761q0.264252 0 1.07903-0.176168 4.954728-0.990946 8.323943-5.461212 3.391236-4.448245 3.171026-10.063603-0.154147-3.897719-2.114017-7.112788-1.255198-2.091996-2.774648-3.171026 9.645204 6.650346 30.521126 18.2334l8.632237 4.822602 3.831657 2.202101q18.717862 10.702213 28.098814 16.361614 35.387769 21.558573 70.026824 44.174154 2.796669 1.827744 8.720322 5.395148 7.487145 4.514308 11.07657 6.936619 21.976972 14.313659 53.356917 36.114463l5.086854 3.523363z" fill="#1296db" p-id="42146"></path><path d="M708.768357 196.427445c10.173708-4.139951 20.567627-7.663313 31.159734-10.570087 3.743572-1.255198 7.553208-2.510396 11.472949-3.457299a338.044586 338.044586 0 0 1 41.311422-6.892577l18.431589-2.37827c3.91974 0 7.839481-0.880841 11.759221-1.145093 3.963783-0.110105 7.927565 0.088084 11.869327 0.572547 4.866644 0.572546-1.343282 9.55712-9.55712 10.900402-15.502794 1.431366-30.697294 3.237089-46.288172 5.152917-9.469036 1.541471-18.761904 3.875698-27.81254 7.068745a297.614004 297.614004 0 0 0-47.609433 18.541694 192.067284 192.067284 0 0 0-25.434271 14.930248c-5.945674 4.624413-11.561032 9.623183-16.824055 14.99631l-3.435278 3.523362c-4.404203 4.228035-6.496199 4.800581-10.129666 2.884753l-2.774648-0.946903c-2.576459-1.717639-2.400291-5.351106 0.572546-9.55712a114.465231 114.465231 0 0 1 33.361837-28.693382c9.55712-5.747485 19.466576-10.812318 29.728369-15.194499l0.198189 0.286273z" fill="#1296db" p-id="42147"></path><path d="M702.514389 181.166882q16.185445-6.606304 33.031521-11.252738l4.382181 15.921193-5.21898-15.656941 5.21898 15.656941-5.21898-15.656941q7.839481-2.642522 12.772188-3.831656 21.624636-4.99877 43.513524-7.266935l1.717639 16.427677-2.136038-16.383635 19.510618-2.510395h1.057009-1.057009 1.057009q1.277219 0 4.910686-0.484463 3.611446-0.484462 5.6594-0.616588l0.396379-0.044042h0.396378-0.396378 0.396378q7.15683-0.176168 14.247596 0.682651 6.870556 0.814778 11.450927 5.747485 4.99877 5.395148 4.800581 12.860272-0.198189 6.95864-5.174938 13.212609-7.751397 9.77733-19.97306 11.781242l-0.572546 0.088084-0.550525 0.044042 0.572546-0.044042-0.572546 0.044042q-16.868097 1.563492-45.803709 5.108875l-1.981892-16.383634 2.59848 16.29555-2.620501-16.29555 2.642522 16.29555q-12.772188 2.069975-24.97183 6.364073l-0.418399 0.132126-0.396378 0.132126 0.396378-0.132126-0.396378 0.132126q-14.357701 4.206014-28.186898 9.909457-9.953498 4.11793-16.603845 7.509166-12.397831 6.055779-23.496422 13.763133l-9.424994-13.564944 10.129667 13.03644-10.129667-13.03644 10.129667 13.03644q-8.015649 6.253968-15.150458 13.520903l-3.611446 3.721551-0.220211 0.198189 0.220211-0.22021-0.220211 0.22021q-14.11547 13.498882-29.243906 5.549296l7.707355-14.621954-5.395149 15.63492-4.77856-1.673597-1.761681-1.167114 1.761681 1.167114-1.761681-1.167114q-9.821372-6.540241-9.1167-18.541693 0.418399-7.266935 5.351107-14.269617l0.242231-0.374358 0.286273-0.352336-0.286273 0.352336 0.286273-0.352336q7.861502-9.975519 17.484685-18.25542 9.645204-8.279901 20.699753-14.53387l8.147776 14.33568-8.522133-14.137491 8.522133 14.137491-8.522133-14.137491q15.326626-9.248826 31.776323-16.251508l12.618041-5.373127 7.795439 11.671137-13.741112 9.182763-6.253968-15.282584z m0 35.674043l-7.685334-11.51699 13.741113-9.160742 6.474178 15.194499q-14.313659 6.121842-27.680415 14.159512l-0.176168 0.110105 0.176168-0.110105-0.176168 0.110105-0.176168 0.088085q-8.279901 4.712497-15.480773 10.900401-7.200872 6.187905-13.080482 13.653029l-12.992399-10.21775 12.992399 10.21775-12.992399-10.21775 13.520903 9.513078q0.484462-0.704672 0.616588-2.862732 0.396378-6.892577-5.527274-10.834339l-9.160742 13.741113 9.160742-13.741113-9.160742 13.741113 5.373127-15.63492 3.963783 1.387324 1.101051 0.572546q-3.082942-1.629555-7.355019-0.418399-1.629555 0.44042-2.642522 1.167113 0.22021-0.154147 1.034988-0.924882l11.428906 11.935389-11.428906-11.935389 11.428906 11.935389-11.847305-11.51699 3.47932-3.589425q8.698301-8.852448 18.497652-16.471719l0.352336-0.286273-0.374357 0.286273 0.374357-0.286273 0.352336-0.242231q13.212608-9.160742 27.372121-16.07534 7.839481-3.963783 18.938072-8.588196 15.458752-6.386094 31.49005-11.07657l4.668455 15.85513-4.668455-15.85513 4.668455 15.85513-5.505254-15.590877q15.018332-5.285043 30.697294-7.81746l0.308294-0.044042-0.308294 0.044042 0.308294-0.044042 0.308294-0.022021q29.398054-3.611446 46.750613-5.218981l1.541471 16.449698-1.541471-16.449698 1.541471 16.449698-2.664543-16.295551q-0.418399 0.044042-0.594567 0.286273-1.871786 2.356248-1.981892 6.408116-0.154147 5.989716 3.985804 10.482002 3.69953 4.007825 8.808405 4.624413-4.712497-0.594567-9.469036-0.484462l-0.396378-16.515761 0.396378 16.515761-0.396378-16.515761 1.211156 16.49374q-1.101051 0.066063-3.743572 0.44042-5.791527 0.748714-9.226805 0.748715v-16.515761 16.515761-16.515761l2.136038 16.361613-18.67382 2.422312-0.22021 0.022021q-19.818913 2.069975-39.065279 6.496199-3.611446 0.880841-10.173708 3.082942l-0.418399 0.132126 0.44042-0.132126-0.44042 0.132126-0.4184 0.110105q-14.952269 4.11793-29.287948 9.97552l-12.507936 5.108875z" fill="#1296db" p-id="42148"></path><path d="M738.122368 280.856013a310.055877 310.055877 0 0 1 23.122065-10.305835c2.862732-1.167114 5.549296-2.59848 8.522132-3.633467 10.129666-3.633467 20.545606-6.694388 30.873462-9.579141 4.580371-1.233177 9.55712-2.576459 13.653029-4.007825 5.747485-2.158059 11.671137-3.413257 17.792979-3.743572 3.831656 0 0.968925 9.579141-5.263022 12.155599-11.362843 3.523362-22.747707 6.782472-34.506929 9.55712a117.151794 117.151794 0 0 0-20.457522 8.23586c-7.355019 3.237089-14.710037 6.694388-21.888888 10.504023a158.727469 158.727469 0 0 0-13.102503 7.355019 170.750943 170.750943 0 0 0-19.114241 12.728146 148.355571 148.355571 0 0 0-12.133578 12.419852l-2.686564 3.523362c-3.347194 3.369215-5.064833 3.655488-8.500111 1.541471l-2.003913-1.541471a5.659401 5.659401 0 0 1-0.594567-8.103733 86.124186 86.124186 0 0 1 24.201094-23.606527c7.046724-4.888665 14.357701-9.380952 21.888888-13.498881h0.198189z" fill="#1296db" p-id="42149"></path><path d="M730.657245 266.123954q9.689246-4.910686 24.355241-10.878381 0.968925-0.374357 2.950816-1.29924 3.897719-1.761681 6.275989-2.598479 12.684104-4.55835 31.974512-9.909456l0.440421-0.110106q8.764364-2.37827 12.221662-3.589425l5.439191 15.590878-5.835569-15.436731c7.266935-2.774648 14.97429-4.382182 22.747707-4.77856l0.440421-0.022021h0.44042-0.44042 0.44042q7.355019 0 12.59602 5.064833 4.206014 4.073888 5.285043 9.997541 1.101051 5.945674-1.299239 12.331768-4.448245 11.913369-15.524815 16.51576l-0.704673 0.286273-0.726693 0.22021 0.726693-0.22021-0.726693 0.22021q-19.488597 6.055779-35.630001 9.865415l-3.787614-16.075341 4.690476 15.855131-4.690476-15.855131 4.690476 15.855131q-9.1167 2.686564-17.572769 7.046724l-0.440421 0.22021-0.44042 0.22021 0.44042-0.22021-0.44042 0.22021q-12.111558 5.329085-20.809858 9.97552-7.310977 3.743572-12.001453 6.716409l-0.330315 0.22021-0.330315 0.176168 0.330315-0.176168-0.330315 0.176168q-9.028616 5.174938-17.286496 11.49497l-10.041583-13.102504 11.120612 12.199642-11.120612-12.199642 11.120612 12.199642q-5.725464 5.21898-10.790296 11.054549l-12.463894-10.834339 13.168566 9.975519-3.369215 4.448245-0.814778 0.792757 0.814778-0.792757-0.814778 0.792757q-13.366755 13.366755-28.781465 3.963782l-0.726693-0.44042-2.972837-2.268164-0.264252-0.220211a22.15314 22.15314 0 0 1-3.126984-3.193047q-1.387324-1.761681-2.422312-3.743572a22.197182 22.197182 0 0 1 3.303152-24.993851l12.221663 11.098591-13.631008-9.314889 13.653029 9.314889-13.653029-9.314889q5.747485-8.412027 13.03644-15.502794 7.266935-7.112788 15.811089-12.662083l8.984573 13.873239-9.380952-13.608987 9.380952 13.608987-9.380952-13.608987q11.29678-7.795439 23.342275-14.379722l3.721552-2.025933h4.404202v16.515761l-7.487144-14.732059z m11.406885 31.26984h-4.139951v-16.51576l7.927565 14.489827q-10.570087 5.725464-20.435501 12.551978l-0.198189 0.154147 0.22021-0.132126-0.22021 0.132126-0.198189 0.132126q-5.791527 3.743572-10.724234 8.566174-4.932707 4.822602-8.808405 10.504024l-0.660631 0.946904 0.660631-0.946904-0.660631 0.946904-0.748714 0.836798a10.85636 10.85636 0 0 0 1.607534-12.287726q-0.484462-0.968925-1.189135-1.827744a10.834339 10.834339 0 0 0-1.51945-1.541471l-10.570087 12.684104 10.019562-13.146545 2.003912 1.541471-9.99754 13.124524 8.588195-14.093449q-2.730606-1.673597-7.200872-0.88084-2.510396 0.44042-4.404202 1.717639l-0.154147 0.066063 11.671137 11.671137-11.671137-11.671137 11.671137 11.671137-13.168566-9.975519 3.016878-3.963783 0.352337-0.44042q6.342052-7.288956 13.498881-13.807176l0.528505-0.462441-0.528505 0.462441 0.528505-0.462441 0.550525-0.44042q9.99754-7.663313 20.964005-13.939302l8.191818 14.33568-8.191818-14.313659 8.191818 14.313659-8.852448-13.917281q6.011737-3.831656 14.181533-8.015649 9.799351-5.21898 22.989939-11.032528l6.672367 15.106416-6." fill="#1296db" p-id="42150"></path></svg>